<svg width="500" height="500" viewBox="0 0 500 500" fill="none" xmlns="http://www.w3.org/2000/svg">
<path d="M452.65 343L270.785 28C261.547 12 238.453 12 229.215 28L47.3501 343C38.1124 359 49.6595 379 68.1347 379H431.865C450.341 379 461.888 359 452.65 343Z" stroke="#022C22" stroke-width="8"/>
<path d="M245.452 106.7L249.227 111.363L249.293 111.31L249.357 111.256L245.452 106.7ZM262.852 101.3H268.852V95.3H262.852V101.3ZM256.552 245L252.647 240.444L252.592 240.492L252.538 240.54L256.552 245ZM239.152 250.4H233.152V256.4H239.152V250.4ZM235.552 311.3L231.31 315.543L231.367 315.6L231.426 315.656L235.552 311.3ZM235.552 284.3L231.31 280.057L231.31 280.057L235.552 284.3ZM263.752 284.3L259.51 288.543L259.567 288.6L259.626 288.656L263.752 284.3ZM263.752 311.3L259.626 306.944L259.626 306.944L263.752 311.3ZM245.152 121.7C245.152 116.469 246.746 113.373 249.227 111.363L241.677 102.037C235.759 106.827 233.152 113.731 233.152 121.7H245.152ZM249.357 111.256C252.149 108.863 256.396 107.3 262.852 107.3V95.3C254.508 95.3 247.156 97.3375 241.547 102.144L249.357 111.256ZM256.852 101.3V229.4H268.852V101.3H256.852ZM256.852 229.4C256.852 234.886 255.218 238.241 252.647 240.444L260.457 249.556C266.286 244.559 268.852 237.514 268.852 229.4H256.852ZM252.538 240.54C250.021 242.806 245.879 244.4 239.152 244.4V256.4C247.626 256.4 255.083 254.394 260.566 249.46L252.538 240.54ZM245.152 250.4V121.7H233.152V250.4H245.152ZM249.652 310.7C245.47 310.7 242.282 309.41 239.679 306.944L231.426 315.656C236.423 320.39 242.635 322.7 249.652 322.7V310.7ZM239.795 307.057C237.394 304.656 236.152 301.716 236.152 297.8H224.152C224.152 304.684 226.511 310.744 231.31 315.543L239.795 307.057ZM236.152 297.8C236.152 293.884 237.394 290.944 239.795 288.543L231.31 280.057C226.511 284.856 224.152 290.916 224.152 297.8H236.152ZM239.795 288.543C242.418 285.92 245.569 284.6 249.652 284.6V272.6C242.536 272.6 236.286 275.08 231.31 280.057L239.795 288.543ZM249.652 284.6C253.736 284.6 256.886 285.92 259.51 288.543L267.995 280.057C263.018 275.08 256.769 272.6 249.652 272.6V284.6ZM259.626 288.656C262.188 291.083 263.452 293.989 263.452 297.8H275.452C275.452 290.811 272.917 284.717 267.879 279.944L259.626 288.656ZM263.452 297.8C263.452 301.611 262.188 304.517 259.626 306.944L267.879 315.656C272.917 310.883 275.452 304.789 275.452 297.8H263.452ZM259.626 306.944C257.023 309.41 253.835 310.7 249.652 310.7V322.7C256.67 322.7 262.882 320.39 267.879 315.656L259.626 306.944Z" fill="#022C22"/>
</svg>
