<svg width="500" height="497" viewBox="0 0 500 497" fill="none" xmlns="http://www.w3.org/2000/svg">
<path d="M237.25 165.3C237.25 157.9 239.65 152.3 244.45 148.5C249.45 144.7 256.35 142.8 265.15 142.8V268.5C265.15 276.1 262.65 281.9 257.65 285.9C252.85 289.9 246.05 291.9 237.25 291.9V165.3ZM249.85 358.2C243.65 358.2 238.45 356.3 234.25 352.5C230.25 348.5 228.25 343.5 228.25 337.5C228.25 331.7 230.25 326.8 234.25 322.8C238.45 318.8 243.65 316.8 249.85 316.8C256.05 316.8 261.25 318.8 265.45 322.8C269.65 326.8 271.75 331.7 271.75 337.5C271.75 343.5 269.65 348.5 265.45 352.5C261.25 356.3 256.05 358.2 249.85 358.2Z" fill="black"/>
</svg>
