<svg width="500" height="507" viewBox="0 0 500 507" fill="none" xmlns="http://www.w3.org/2000/svg">
<mask id="path-1-inside-1_1_14" fill="white">
<path d="M3.05176e-05 187C3.05176e-05 87.5888 80.5888 7 180 7H320C419.411 7 500 87.5888 500 187V327C500 426.411 419.411 507 320 507H180C80.5888 507 3.05176e-05 426.411 3.05176e-05 327V187Z"/>
</mask>
<g filter="url(#filter0_i_1_14)">
<path d="M3.05176e-05 187C3.05176e-05 87.5888 80.5888 7 180 7H320C419.411 7 500 87.5888 500 187V327C500 426.411 419.411 507 320 507H180C80.5888 507 3.05176e-05 426.411 3.05176e-05 327V187Z" fill="#409998"/>
</g>
<path d="M3.05176e-05 7H500H3.05176e-05ZM516 329C516 437.248 428.248 525 320 525H180C71.7522 525 -16 437.248 -16 329L16 327C16 416.47 89.4253 489 180 489H320C410.575 489 484 416.47 484 327L516 329ZM180 525C71.7522 525 -16 437.248 -16 329V203C-16 94.7522 71.7522 7 180 7C89.4253 7 16 87.5887 16 187V327C16 416.47 89.4253 489 180 489V525ZM320 7C428.248 7 516 94.7522 516 203V329C516 437.248 428.248 525 320 525V489C410.575 489 484 416.47 484 327V187C484 87.5887 410.575 7 320 7Z" fill="#022C22" mask="url(#path-1-inside-1_1_14)"/>
<g filter="url(#filter1_d_1_14)">
<path d="M377.084 452.031C362.317 455.279 347.4 455.578 332.333 452.931C317.267 450.283 303.583 445.164 291.281 437.573C278.882 429.823 269.174 420.217 262.156 408.755L206.598 318.012C202.602 311.485 202.084 305.909 205.044 301.284C208.004 296.659 214.224 293.304 223.705 291.22L291.69 402.26C298.611 413.563 308.591 421.755 321.631 426.835C334.755 431.716 348.61 432.553 363.194 429.346C377.779 426.138 387.352 420.15 391.911 411.38C396.556 402.411 395.418 392.275 388.497 380.972L332.939 290.229C328.845 283.543 328.236 277.987 331.112 273.561C334.072 268.936 340.383 265.561 350.046 263.436L418.032 374.477C425.049 385.939 428.012 397.029 426.92 407.745C425.828 418.462 420.965 427.75 412.331 435.61C403.6 443.31 391.851 448.784 377.084 452.031Z" fill="#022C22"/>
<path d="M332.333 452.931L332.521 459.792L332.521 459.792L332.333 452.931ZM291.281 437.573L286.941 442.691L286.971 442.71L287.002 442.729L291.281 437.573ZM205.044 301.284L196.932 296.981L196.932 296.981L205.044 301.284ZM223.705 291.22L231.518 289.501L227.341 282.679L219.527 284.397L223.705 291.22ZM321.631 426.835L319.43 433.025L319.523 433.062L319.617 433.096L321.631 426.835ZM391.911 411.38L400.236 415.315L400.24 415.308L391.911 411.38ZM331.112 273.561L339.206 277.892L339.215 277.878L339.223 277.864L331.112 273.561ZM350.046 263.436L357.859 261.718L353.682 254.895L345.868 256.614L350.046 263.436ZM426.92 407.745L418.086 405.525L418.086 405.525L426.92 407.745ZM412.331 435.61L419.53 440.972L419.562 440.944L419.593 440.916L412.331 435.61ZM372.907 445.208C359.23 448.216 345.67 448.446 332.145 446.069L332.521 459.792C349.13 462.711 365.404 462.341 381.261 458.854L372.907 445.208ZM332.145 446.069C318.521 443.675 306.396 439.104 295.56 432.417L287.002 442.729C300.769 451.224 316.012 456.891 332.521 459.792L332.145 446.069ZM295.622 432.455C284.765 425.669 276.23 417.262 269.969 407.036L254.343 410.473C262.118 423.172 273 433.977 286.941 442.691L295.622 432.455ZM269.969 407.036L214.411 316.294L198.785 319.73L254.343 410.473L269.969 407.036ZM214.411 316.294C211.478 311.502 211.463 308.232 213.156 305.587L196.932 296.981C192.704 303.586 193.726 311.467 198.785 319.73L214.411 316.294ZM213.156 305.587C215.024 302.669 219.374 299.913 227.882 298.042L219.527 284.397C209.075 286.695 200.985 290.649 196.932 296.981L213.156 305.587ZM215.891 292.938L283.877 403.978L299.504 400.542L231.518 289.501L215.891 292.938ZM283.877 403.978C291.85 417 303.752 426.917 319.43 433.025L323.831 420.644C313.429 416.592 305.371 410.125 299.504 400.542L283.877 403.978ZM319.617 433.096C335.283 438.923 351.339 439.694 367.372 436.168L359.017 422.523C345.88 425.412 334.227 424.509 323.644 420.573L319.617 433.096ZM367.372 436.168C383.397 432.644 394.761 425.845 400.236 415.315L383.586 407.444C379.942 414.454 372.162 419.632 359.017 422.523L367.372 436.168ZM400.24 415.308C405.815 404.542 404.313 392.323 396.311 379.253L380.684 382.69C386.523 392.226 387.297 400.279 383.583 407.451L400.24 415.308ZM396.311 379.253L340.752 288.511L325.126 291.947L380.684 382.69L396.311 379.253ZM340.752 288.511C337.622 283.398 337.696 280.216 339.206 277.892L323.017 269.23C318.776 275.757 320.068 283.687 325.126 291.947L340.752 288.511ZM339.223 277.864C341.078 274.966 345.491 272.179 354.223 270.259L345.868 256.614C335.275 258.943 327.065 262.906 323 269.258L339.223 277.864ZM342.232 265.155L410.218 376.195L425.845 372.759L357.859 261.718L342.232 265.155ZM410.218 376.195C416.479 386.421 419.043 396.141 418.086 405.525L435.754 409.966C436.982 397.916 433.62 385.457 425.845 372.759L410.218 376.195ZM418.086 405.525C417.123 414.976 412.852 423.219 405.07 430.304L419.593 440.916C429.078 432.281 434.533 421.948 435.754 409.966L418.086 405.525ZM405.133 430.247C397.282 437.171 386.62 442.193 372.907 445.208L381.261 458.854C397.083 455.375 409.919 449.449 419.53 440.972L405.133 430.247Z" fill="#022C22"/>
</g>
<g filter="url(#filter2_d_1_14)">
<path d="M116.958 68.7115C131.417 64.2908 146.112 62.8989 161.042 64.5356C175.972 66.1724 189.613 70.4583 201.965 77.3935C214.418 84.4858 224.273 93.6875 231.533 104.998L289.001 194.543C293.135 200.984 293.812 206.697 291.031 211.681C288.251 216.666 282.22 220.577 272.937 223.415L202.614 113.84C195.456 102.686 185.374 94.9626 172.369 90.67C159.287 86.5891 145.605 86.7317 131.325 91.0978C117.044 95.4639 107.787 102.334 103.554 111.709C99.2429 121.296 100.667 131.666 107.825 142.82L165.293 232.365C169.528 238.963 170.294 244.648 167.591 249.421C164.811 254.405 158.691 258.343 149.23 261.236L78.9063 151.661C71.6472 140.35 68.3962 129.129 69.1534 117.998C69.9106 106.867 74.4272 96.9359 82.7033 88.2043C91.0801 79.6298 102.498 73.1322 116.958 68.7115Z" fill="#022C22"/>
<path d="M161.042 64.5356L160.652 57.4735L160.652 57.4735L161.042 64.5356ZM201.965 77.3935L206.091 71.8007L206.06 71.7832L206.029 71.7659L201.965 77.3935ZM291.031 211.681L299.156 215.53L299.156 215.53L291.031 211.681ZM272.937 223.415L265.287 225.754L269.608 232.486L277.258 230.147L272.937 223.415ZM172.369 90.67L174.354 84.1265L174.261 84.0959L174.168 84.0668L172.369 90.67ZM103.554 111.709L95.2306 108.255L95.2273 108.262L103.554 111.709ZM167.591 249.421L159.484 245.542L159.475 245.557L159.467 245.572L167.591 249.421ZM149.23 261.236L141.579 263.575L145.9 270.308L153.551 267.969L149.23 261.236ZM69.1534 117.998L77.927 119.647L77.927 119.647L69.1534 117.998ZM82.7033 88.2043L75.4476 83.197L75.4171 83.2282L75.3871 83.2598L82.7033 88.2043ZM121.278 75.4442C134.67 71.3501 148.03 70.1286 161.432 71.5978L160.652 57.4735C144.194 55.6691 128.164 57.2316 112.637 61.9788L121.278 75.4442ZM161.432 71.5978C174.932 73.0778 187.02 76.9122 197.901 83.0212L206.029 71.7659C192.206 64.0045 177.012 59.2669 160.652 57.4735L161.432 71.5978ZM197.839 82.9864C208.743 89.1965 217.406 97.2466 223.882 107.337L239.183 102.659C231.141 90.1283 220.092 79.7752 206.091 71.8007L197.839 82.9864ZM223.882 107.337L281.351 196.882L296.651 192.205L239.183 102.659L223.882 107.337ZM281.351 196.882C284.385 201.611 284.497 204.982 282.907 207.832L299.156 215.53C303.126 208.412 301.884 200.358 296.651 192.205L281.351 196.882ZM282.907 207.832C281.153 210.977 276.947 214.135 268.616 216.682L277.258 230.147C287.493 227.018 295.349 222.354 299.156 215.53L282.907 207.832ZM280.588 221.076L210.264 111.501L194.963 116.179L265.287 225.754L280.588 221.076ZM210.264 111.501C202.017 98.6502 189.99 89.2876 174.354 84.1265L170.385 97.2136C180.758 100.638 188.894 106.722 194.963 116.179L210.264 111.501ZM174.168 84.0668C158.552 79.1955 142.702 79.5657 127.004 84.3651L135.646 97.8305C148.509 93.8977 160.022 93.9827 170.571 97.2733L174.168 84.0668ZM127.004 84.3651C111.313 89.1623 100.313 96.9985 95.2306 108.255L111.877 115.163C115.26 107.67 122.775 101.765 135.646 97.8305L127.004 84.3651ZM95.2273 108.262C90.0527 119.77 91.8973 132.261 100.175 145.159L115.475 140.481C109.436 131.07 108.433 122.821 111.88 115.156L95.2273 108.262ZM100.175 145.159L157.643 234.704L172.944 230.026L115.475 140.481L100.175 145.159ZM157.643 234.704C160.881 239.749 160.903 243.036 159.484 245.542L175.699 253.299C179.685 246.26 178.175 238.177 172.944 230.026L157.643 234.704ZM159.467 245.572C157.725 248.695 153.458 251.889 144.909 254.503L153.551 267.969C163.923 264.797 171.897 260.115 175.716 253.27L159.467 245.572ZM156.88 258.897L86.5568 149.322L71.2559 154L141.579 263.575L156.88 258.897ZM86.5568 149.322C80.0807 139.231 77.264 129.394 77.927 119.647L60.3797 116.349C59.5283 128.865 63.2136 141.469 71.2559 154L86.5568 149.322ZM77.927 119.647C78.5948 109.831 82.5593 101.02 90.0194 93.1488L75.3871 83.2598C66.2951 92.8523 61.2263 103.904 60.3797 116.349L77.927 119.647ZM89.959 93.2116C97.4913 85.5015 107.851 79.5493 121.278 75.4442L112.637 61.9788C97.1452 66.715 84.6689 73.758 75.4476 83.197L89.959 93.2116Z" fill="#022C22"/>
</g>
<path d="M315.551 247.744C312.25 248.902 309.526 248.268 307.379 245.842C305.232 243.415 304.935 240.634 306.487 237.498L349.193 141.795C352.957 142.79 355.913 144.501 358.06 146.928C359.65 148.725 360.632 150.741 361.005 152.974C361.299 155.117 360.866 157.343 359.704 159.653L327.736 227.832L399.168 204.529C401.432 203.648 403.689 203.573 405.94 204.306C408.19 205.039 410.15 206.349 411.82 208.236C414.126 210.843 415.475 213.815 415.865 217.155L315.551 247.744Z" fill="#022C22"/>
<path d="M179.358 278.076C182.755 277.24 185.406 278.132 187.311 280.753C189.215 283.375 189.245 286.171 187.399 289.144L135.717 380.314C132.065 378.962 129.287 376.975 127.383 374.354C125.972 372.413 125.188 370.312 125.03 368.054C124.943 365.892 125.588 363.718 126.965 361.53L165.322 296.729L91.9849 313.078C89.6466 313.738 87.3925 313.596 85.2226 312.651C83.0527 311.706 81.2271 310.214 79.7459 308.175C77.7004 305.36 76.6432 302.272 76.5742 298.91L179.358 278.076Z" fill="#022C22"/>
<defs>
<filter id="filter0_i_1_14" x="3.05176e-05" y="7" width="500" height="504" filterUnits="userSpaceOnUse" color-interpolation-filters="sRGB">
<feFlood flood-opacity="0" result="BackgroundImageFix"/>
<feBlend mode="normal" in="SourceGraphic" in2="BackgroundImageFix" result="shape"/>
<feColorMatrix in="SourceAlpha" type="matrix" values="0 0 0 0 0 0 0 0 0 0 0 0 0 0 0 0 0 0 127 0" result="hardAlpha"/>
<feOffset dy="4"/>
<feGaussianBlur stdDeviation="2"/>
<feComposite in2="hardAlpha" operator="arithmetic" k2="-1" k3="1"/>
<feColorMatrix type="matrix" values="0 0 0 0 0 0 0 0 0 0 0 0 0 0 0 0 0 0 0.25 0"/>
<feBlend mode="normal" in2="shape" result="effect1_innerShadow_1_14"/>
</filter>
<filter id="filter1_d_1_14" x="190.17" y="263.436" width="268.851" height="213.734" filterUnits="userSpaceOnUse" color-interpolation-filters="sRGB">
<feFlood flood-opacity="0" result="BackgroundImageFix"/>
<feColorMatrix in="SourceAlpha" type="matrix" values="0 0 0 0 0 0 0 0 0 0 0 0 0 0 0 0 0 0 127 0" result="hardAlpha"/>
<feOffset dy="4"/>
<feGaussianBlur stdDeviation="2"/>
<feComposite in2="hardAlpha" operator="out"/>
<feColorMatrix type="matrix" values="0 0 0 0 0 0 0 0 0 0 0 0 0 0 0 0 0 0 0.25 0"/>
<feBlend mode="normal" in2="BackgroundImageFix" result="effect1_dropShadow_1_14"/>
<feBlend mode="normal" in="SourceGraphic" in2="effect1_dropShadow_1_14" result="shape"/>
</filter>
<filter id="filter2_d_1_14" x="36.6444" y="45.3802" width="269.211" height="223.856" filterUnits="userSpaceOnUse" color-interpolation-filters="sRGB">
<feFlood flood-opacity="0" result="BackgroundImageFix"/>
<feColorMatrix in="SourceAlpha" type="matrix" values="0 0 0 0 0 0 0 0 0 0 0 0 0 0 0 0 0 0 127 0" result="hardAlpha"/>
<feOffset dy="4"/>
<feGaussianBlur stdDeviation="2"/>
<feComposite in2="hardAlpha" operator="out"/>
<feColorMatrix type="matrix" values="0 0 0 0 0 0 0 0 0 0 0 0 0 0 0 0 0 0 0.25 0"/>
<feBlend mode="normal" in2="BackgroundImageFix" result="effect1_dropShadow_1_14"/>
<feBlend mode="normal" in="SourceGraphic" in2="effect1_dropShadow_1_14" result="shape"/>
</filter>
</defs>
</svg>
