<svg width="500" height="507" viewBox="0 0 500 507" fill="none" xmlns="http://www.w3.org/2000/svg">
<mask id="path-1-inside-1_15_25" fill="white">
<path d="M-0.000244141 323.5C-0.000244141 422.911 80.5885 503.5 180 503.5H320C419.411 503.5 500 422.911 500 323.5V183.5C500 84.0888 419.411 3.5 320 3.5H180C80.5885 3.5 -0.000244141 84.0888 -0.000244141 183.5V323.5Z"/>
</mask>
<path d="M-0.000244141 323.5C-0.000244141 422.911 80.5885 503.5 180 503.5H320C419.411 503.5 500 422.911 500 323.5V183.5C500 84.0888 419.411 3.5 320 3.5H180C80.5885 3.5 -0.000244141 84.0888 -0.000244141 183.5V323.5Z" fill="#2563EB"/>
<path d="M-8.00024 333.5C-8.00024 437.33 76.1702 521.5 180 521.5H320C423.829 521.5 508 437.33 508 333.5L492 323.5C492 412.97 414.993 485.5 320 485.5H180C85.0068 485.5 7.99976 412.97 7.99976 323.5L-8.00024 333.5ZM500 3.5H-0.000244141H500ZM180 3.5C76.1702 3.5 -8.00024 87.6705 -8.00024 191.5V333.5C-8.00024 437.33 76.1702 521.5 180 521.5V485.5C85.0068 485.5 7.99976 412.97 7.99976 323.5V183.5C7.99976 84.0887 85.0068 3.5 180 3.5ZM320 521.5C423.829 521.5 508 437.33 508 333.5V191.5C508 87.6705 423.829 3.5 320 3.5C414.993 3.5 492 84.0887 492 183.5V323.5C492 412.97 414.993 485.5 320 485.5V521.5Z" fill="#172554" mask="url(#path-1-inside-1_15_25)"/>
<path d="M316.182 425.883L316.153 425.872L316.124 425.861C302.318 420.483 291.628 411.74 284.225 399.648L223.677 300.757C221.863 297.793 219.141 295.476 216.306 294.367C213.539 293.284 210.84 293.387 208.497 294.862C206.533 296.099 205.209 297.411 204.358 298.74C202.543 301.576 202.394 305.407 205.955 311.223L261.513 401.965C268.178 412.851 277.422 422.025 289.337 429.474C301.18 436.781 314.378 441.726 328.971 444.29C343.53 446.849 357.919 446.558 372.17 443.424C386.453 440.283 397.517 435.056 405.607 427.93C413.564 420.678 417.904 412.281 418.886 402.639C419.87 392.99 417.241 382.768 410.566 371.865L350.019 272.974C348.204 270.011 345.488 267.698 342.648 266.583C339.874 265.493 337.145 265.579 334.762 267.036C332.674 268.313 331.293 269.663 330.426 271.017L330.419 271.028L330.411 271.04C328.755 273.589 328.565 277.346 332.296 283.439L387.854 374.182C395.247 386.256 396.897 397.92 391.409 408.518L391.406 408.524C386.068 418.79 375.142 425.221 359.999 428.551C344.716 431.912 330.075 431.05 316.182 425.883Z" fill="#030712" stroke="#020617" stroke-width="8"/>
<path d="M180.232 73.4803L180.263 73.4901L180.295 73.5004C194.139 78.0702 204.98 86.3547 212.652 98.3081L274.789 195.128C276.757 198.195 279.729 200.52 282.742 201.514C285.671 202.481 288.428 202.159 290.681 200.36C292.314 199.056 293.455 197.715 294.209 196.362C296.027 193.103 295.956 189.02 292.306 183.333L234.838 93.7877C227.953 83.0599 218.592 74.2976 206.668 67.5043C194.816 60.8518 181.701 56.7218 167.278 55.1406C152.891 53.5635 138.742 54.9026 124.798 59.1655C110.829 63.4366 100.056 69.6321 92.2567 77.6072C84.5803 85.7148 80.5039 94.7801 79.8156 104.898C79.1278 115.009 82.0513 125.389 88.9441 136.129L151.082 232.949C153.05 236.016 156.014 238.338 159.033 239.339C161.972 240.313 164.763 240.006 167.061 238.223C168.803 236.87 169.997 235.486 170.77 234.101L170.776 234.09L170.782 234.078C172.456 231.122 172.42 227.108 168.599 221.154L111.13 131.609C103.458 119.654 101.565 107.842 106.577 96.6974L106.58 96.6918C111.468 85.8657 121.953 78.4485 136.827 73.9014C151.805 69.3221 166.312 69.1382 180.232 73.4803Z" fill="#030712" stroke="#020617" stroke-width="8"/>
<path d="M307.583 242.455L307.665 242.444L307.748 242.437L408.04 233.388C408.164 233.376 408.277 233.343 408.368 233.299C408.383 233.292 408.397 233.285 408.41 233.278C408.159 231.992 407.682 230.71 406.947 229.42C406.028 227.809 404.873 226.658 403.479 225.859C402.251 225.154 400.965 224.916 399.453 225.168L399.343 225.186L399.231 225.199L336.025 232.137C328.191 232.997 323.113 224.085 327.848 217.784L366.147 166.82L366.18 166.776L366.214 166.732C367.401 165.241 367.895 163.919 367.99 162.729C368.037 161.283 367.692 159.866 366.863 158.412C366.165 157.187 365.198 156.063 363.908 155.043C363.862 155.055 363.793 155.082 363.714 155.135C363.624 155.195 363.535 155.278 363.459 155.382L304.572 236.88L304.525 236.945L304.476 237.008C303.748 237.935 303.528 238.62 303.481 239.086C303.437 239.526 303.513 240.101 303.971 240.905C304.43 241.709 304.887 242.067 305.288 242.253C305.713 242.451 306.414 242.61 307.583 242.455Z" fill="#030712" stroke="#020617" stroke-width="8"/>
<path d="M196.895 262.176L196.812 262.176L196.729 262.172L96.1285 257.707C96.004 257.701 95.888 257.719 95.7921 257.75C95.776 257.755 95.7611 257.761 95.7474 257.766C95.8235 259.073 96.1243 260.408 96.6802 261.784C97.375 263.504 98.3653 264.799 99.6397 265.778L97.2028 268.95L99.6397 265.778C100.763 266.641 102.005 267.05 103.537 267.002L103.649 266.999L103.761 267.002L167.327 268.592C175.206 268.789 179.044 278.301 173.508 283.911L128.728 329.286L128.689 329.325L128.649 329.363C127.273 330.683 126.607 331.927 126.353 333.093C126.113 334.52 126.265 335.97 126.892 337.522C127.42 338.829 128.227 340.073 129.37 341.256C129.417 341.25 129.488 341.233 129.574 341.191C129.671 341.144 129.77 341.074 129.859 340.981L199.132 268.104L199.187 268.046L199.244 267.991C200.09 267.169 200.4 266.52 200.508 266.064C200.611 265.635 200.613 265.054 200.266 264.196C199.92 263.338 199.515 262.922 199.142 262.684C198.748 262.431 198.074 262.179 196.895 262.176Z" fill="#030712" stroke="#020617" stroke-width="8"/>
<path d="M280.757 307.856L280.779 307.89L280.8 307.924C281.714 309.426 282.841 310.419 284.197 311.046C285.818 311.728 287.509 311.978 289.335 311.786C290.521 311.661 291.215 311.041 291.539 309.668C291.91 308.093 291.587 305.886 290.399 304.028L218.892 192.204C217.841 190.641 216.611 189.61 215.203 188.969L215.154 188.947L215.106 188.924C213.819 188.296 212.314 188.019 210.466 188.213C209.315 188.334 208.644 188.922 208.336 190.316C207.982 191.923 208.335 194.179 209.54 196.071L280.757 307.856Z" fill="#030712" stroke="#020617" stroke-width="8"/>
</svg>
