<svg width="500" height="507" viewBox="0 0 500 507" fill="none" xmlns="http://www.w3.org/2000/svg">
<path d="M332.333 61.0691L332.521 54.2077L332.521 54.2077L332.333 61.0691ZM291.281 76.4269L286.941 71.309L286.971 71.2899L287.002 71.2709L291.281 76.4269ZM205.044 212.716L196.932 217.019L196.932 217.019L205.044 212.716ZM223.705 222.78L231.518 224.499L227.341 231.321L219.527 229.603L223.705 222.78ZM321.631 87.1651L319.43 80.9746L319.523 80.9384L319.617 80.9036L321.631 87.1651ZM391.911 102.62L400.236 98.6848L400.24 98.6917L391.911 102.62ZM331.112 240.439L339.206 236.108L339.215 236.122L339.223 236.136L331.112 240.439ZM350.046 250.564L357.859 252.282L353.682 259.105L345.868 257.386L350.046 250.564ZM426.92 106.255L418.086 108.475L418.086 108.475L426.92 106.255ZM412.331 78.3902L419.53 73.0279L419.562 73.056L419.593 73.0844L412.331 78.3902ZM372.907 68.7915C359.23 65.784 345.67 65.554 332.145 67.9306L332.521 54.2077C349.13 51.289 365.404 51.6588 381.261 55.146L372.907 68.7915ZM332.145 67.9306C318.521 70.3247 306.396 74.8962 295.56 81.5829L287.002 71.2709C300.769 62.7757 316.012 57.1088 332.521 54.2077L332.145 67.9306ZM295.622 81.5448C284.765 88.3309 276.23 96.7379 269.969 106.964L254.343 103.527C262.118 90.8284 273 80.0231 286.941 71.309L295.622 81.5448ZM269.969 106.964L214.411 197.706L198.785 194.27L254.343 103.527L269.969 106.964ZM214.411 197.706C211.478 202.498 211.463 205.768 213.156 208.413L196.932 217.019C192.704 210.414 193.726 202.533 198.785 194.27L214.411 197.706ZM213.156 208.413C215.024 211.331 219.374 214.087 227.882 215.958L219.527 229.603C209.075 227.305 200.985 223.351 196.932 217.019L213.156 208.413ZM215.891 221.062L283.877 110.022L299.504 113.458L231.518 224.499L215.891 221.062ZM283.877 110.022C291.85 96.9995 303.752 87.0829 319.43 80.9746L323.831 93.3555C313.429 97.408 305.371 103.875 299.504 113.458L283.877 110.022ZM319.617 80.9036C335.283 75.0772 351.339 74.3061 367.372 77.8317L359.017 91.4772C345.88 88.5882 334.227 89.4908 323.644 93.4265L319.617 80.9036ZM367.372 77.8317C383.397 81.3557 394.761 88.1546 400.236 98.6848L383.586 106.556C379.942 99.546 372.162 94.3678 359.017 91.4772L367.372 77.8317ZM400.24 98.6917C405.815 109.458 404.313 121.677 396.311 134.747L380.684 131.31C386.523 121.774 387.297 113.721 383.583 106.549L400.24 98.6917ZM396.311 134.747L340.752 225.489L325.126 222.053L380.684 131.31L396.311 134.747ZM340.752 225.489C337.622 230.602 337.696 233.784 339.206 236.108L323.017 244.77C318.776 238.243 320.068 230.313 325.126 222.053L340.752 225.489ZM339.223 236.136C341.078 239.034 345.491 241.821 354.223 243.741L345.868 257.386C335.275 255.057 327.065 251.094 323 244.742L339.223 236.136ZM342.232 248.845L410.218 137.805L425.845 141.241L357.859 252.282L342.232 248.845ZM410.218 137.805C416.479 127.579 419.043 117.859 418.086 108.475L435.754 104.034C436.982 116.084 433.62 128.543 425.845 141.241L410.218 137.805ZM418.086 108.475C417.123 99.0241 412.852 90.7806 405.07 83.696L419.593 73.0844C429.078 81.7187 434.533 92.0515 435.754 104.034L418.086 108.475ZM405.133 83.7525C397.282 76.8285 386.62 71.8071 372.907 68.7915L381.261 55.146C397.083 58.6252 409.919 64.5514 419.53 73.0279L405.133 83.7525Z" fill="#022C22"/>
<path d="M161.042 449.464L160.652 456.527L160.652 456.527L161.042 449.464ZM201.965 436.606L206.091 442.199L206.06 442.217L206.029 442.234L201.965 436.606ZM291.031 302.319L299.155 298.47L299.155 298.47L291.031 302.319ZM272.937 290.585L265.287 288.246L269.608 281.514L277.258 283.853L272.937 290.585ZM172.369 423.33L174.354 429.873L174.261 429.904L174.168 429.933L172.369 423.33ZM103.554 402.291L95.2305 405.745L95.2272 405.738L103.554 402.291ZM167.591 264.579L159.484 268.458L159.475 268.443L159.467 268.428L167.591 264.579ZM149.23 252.764L141.579 250.425L145.9 243.692L153.55 246.031L149.23 252.764ZM69.1533 396.002L77.927 394.353L77.927 394.353L69.1533 396.002ZM82.7032 425.796L75.4475 430.803L75.417 430.772L75.3871 430.74L82.7032 425.796ZM121.278 438.556C134.67 442.65 148.03 443.871 161.431 442.402L160.652 456.527C144.194 458.331 128.164 456.768 112.637 452.021L121.278 438.556ZM161.431 442.402C174.932 440.922 187.02 437.088 197.901 430.979L206.029 442.234C192.206 449.995 177.012 454.733 160.652 456.527L161.431 442.402ZM197.839 431.014C208.743 424.804 217.406 416.753 223.882 406.663L239.183 411.341C231.141 423.872 220.092 434.225 206.091 442.199L197.839 431.014ZM223.882 406.663L281.351 317.118L296.651 321.795L239.183 411.341L223.882 406.663ZM281.351 317.118C284.385 312.389 284.497 309.018 282.907 306.168L299.155 298.47C303.126 305.588 301.884 313.642 296.651 321.795L281.351 317.118ZM282.907 306.168C281.153 303.023 276.947 299.865 268.616 297.318L277.258 283.853C287.493 286.982 295.349 291.646 299.155 298.47L282.907 306.168ZM280.588 292.924L210.264 402.499L194.963 397.821L265.287 288.246L280.588 292.924ZM210.264 402.499C202.017 415.35 189.99 424.712 174.354 429.873L170.385 416.786C180.758 413.362 188.894 407.278 194.963 397.821L210.264 402.499ZM174.168 429.933C158.552 434.804 142.702 434.434 127.004 429.635L135.646 416.17C148.509 420.102 160.022 420.017 170.571 416.727L174.168 429.933ZM127.004 429.635C111.313 424.838 100.313 417.002 95.2305 405.745L111.877 398.837C115.26 406.33 122.775 412.235 135.646 416.17L127.004 429.635ZM95.2272 405.738C90.0526 394.23 91.8973 381.739 100.175 368.841L115.475 373.519C109.436 382.93 108.433 391.178 111.88 398.844L95.2272 405.738ZM100.175 368.841L157.643 279.296L172.944 283.974L115.475 373.519L100.175 368.841ZM157.643 279.296C160.881 274.251 160.903 270.964 159.484 268.458L175.699 260.701C179.685 267.74 178.175 275.823 172.944 283.974L157.643 279.296ZM159.467 268.428C157.725 265.305 153.458 262.111 144.909 259.497L153.55 246.031C163.923 249.203 171.897 253.885 175.716 260.73L159.467 268.428ZM156.88 255.103L86.5567 364.678L71.2558 360L141.579 250.425L156.88 255.103ZM86.5567 364.678C80.0807 374.769 77.264 384.606 77.927 394.353L60.3797 397.651C59.5283 385.135 63.2135 372.531 71.2558 360L86.5567 364.678ZM77.927 394.353C78.5948 404.169 82.5593 412.98 90.0193 420.851L75.3871 430.74C66.2951 421.148 61.2263 410.096 60.3797 397.651L77.927 394.353ZM89.9589 420.788C97.4913 428.499 107.851 434.451 121.278 438.556L112.637 452.021C97.1451 447.285 84.6689 440.242 75.4475 430.803L89.9589 420.788Z" fill="#022C22"/>
<path d="M317.912 268.969C314.611 267.811 311.887 268.445 309.74 270.871C307.593 273.298 307.296 276.079 308.848 279.215L351.553 374.918C355.318 373.923 358.274 372.212 360.421 369.785C362.011 367.988 362.993 365.972 363.366 363.739C363.66 361.596 363.227 359.37 362.065 357.06L330.097 288.881L401.529 312.184C403.793 313.065 406.05 313.14 408.301 312.407C410.551 311.674 412.511 310.364 414.181 308.477C416.487 305.87 417.835 302.898 418.226 299.558L317.912 268.969Z" fill="#022C22"/>
<path d="M181.719 238.637C185.116 239.473 187.767 238.581 189.672 235.96C191.576 233.338 191.606 230.542 189.76 227.569L138.078 136.4C134.426 137.751 131.648 139.738 129.744 142.359C128.333 144.3 127.549 146.401 127.391 148.659C127.304 150.821 127.949 152.995 129.326 155.183L167.682 219.984L94.3458 203.635C92.0075 202.975 89.7534 203.117 87.5835 204.062C85.4136 205.007 83.5881 206.499 82.1069 208.538C80.0614 211.353 79.0041 214.441 78.9352 217.803L181.719 238.637Z" fill="#022C22"/>
<path d="M279.151 198.038C280.575 195.955 282.388 194.481 284.59 193.614C286.911 192.767 289.316 192.541 291.805 192.935C295.361 193.498 298.62 195.168 301.582 197.946L217.802 314.981C216.26 317.045 214.388 318.51 212.185 319.376C210.101 320.261 207.815 320.506 205.326 320.112C201.77 319.549 198.58 317.829 195.755 314.951L279.151 198.038Z" fill="#022C22"/>
</svg>
